<?xml version="1.0" encoding="UTF-8"?>
<svg version="1.1" xmlns="http://www.w3.org/2000/svg" width="551" height="551">
<path d="M0 0 C8.27839385 6.27269095 15.58266152 13.88084031 22.91577148 21.21508789 C24.51602497 22.81312496 26.12417029 24.40294015 27.73266602 25.99267578 C28.76831016 27.02538986 29.80348376 28.05857608 30.83813477 29.09228516 C31.75900879 30.00905029 32.67988281 30.92581543 33.62866211 31.87036133 C40.46076739 39.36671761 44.22670006 48.61111505 44.56469727 58.79931641 C43.77741952 74.51947525 34.18163256 85.15569392 23.56628418 95.70085144 C22.38230125 96.89160122 21.19918453 98.0832128 20.01685476 99.27560407 C16.7827281 102.53215398 13.53632676 105.77621482 10.28764915 109.01824033 C6.77928405 112.52372247 3.28243046 116.04065724 -0.21600342 119.55604553 C-7.06521169 126.43456732 -13.92537132 133.30206421 -20.78986353 140.16533013 C-26.37138298 145.74601623 -31.94953811 151.33004346 -37.52534485 156.91643715 C-55.07000987 174.49376673 -72.62647044 192.05922932 -90.19185239 209.61585496 C-104.03534414 223.45336573 -117.86056006 237.30897516 -131.67743415 251.17305943 C-145.87770664 265.4214716 -160.09099049 279.65678718 -174.31809473 293.87840921 C-182.30007839 301.85781948 -190.27672647 309.84239564 -198.23954773 317.84093285 C-205.01894083 324.65049467 -211.81045491 331.44767747 -218.61776251 338.22933861 C-222.08759628 341.68677918 -225.55165313 345.14951204 -229.00055695 348.62784195 C-232.16384148 351.81782114 -235.34312785 354.99092345 -238.53541547 358.15187053 C-239.68154033 359.29230366 -240.82191083 360.43855888 -241.95552129 361.59143236 C-252.20776831 372.00589593 -263.02326953 377.79323459 -277.06030273 382.11181641 C-279.12262856 382.77367672 -281.18372006 383.43938941 -283.24389648 384.10791016 C-285.0012915 384.67807861 -285.0012915 384.67807861 -286.79418945 385.25976562 C-295.44614233 388.1045808 -304.02730291 391.16443193 -312.62280273 394.17431641 C-314.42901236 394.80589575 -316.23524566 395.43740737 -318.04150391 396.06884766 C-322.43574945 397.60554456 -326.82923664 399.14439822 -331.2225647 400.68371582 C-333.9463858 401.63758484 -336.67064161 402.59020301 -339.39501953 403.54248047 C-340.74161652 404.01330299 -340.74161652 404.01330299 -342.11541748 404.49363708 C-343.81028721 405.08619212 -345.50522816 405.67854351 -347.20025635 406.27064514 C-350.77568035 407.52107906 -354.34728411 408.77979251 -357.90942383 410.06762695 C-366.73780836 413.21855358 -366.73780836 413.21855358 -370.99780273 411.73681641 C-374.46437305 409.17456878 -375.71444347 407.78190976 -376.87280273 403.61181641 C-376.12441117 397.01243887 -373.61454706 390.70465206 -371.30249023 384.52587891 C-370.77217949 383.0872776 -370.77217949 383.0872776 -370.2311554 381.61961365 C-369.07577595 378.48985737 -367.91206272 375.36327888 -366.74780273 372.23681641 C-365.94050628 370.05785105 -365.13362671 367.8787312 -364.32714844 365.69946289 C-362.66889284 361.22132821 -361.0070806 356.74453436 -359.34301758 352.26855469 C-357.35359392 346.91376323 -355.37754174 341.55419109 -353.40844727 336.19189453 C-351.97070599 332.27779731 -350.52812047 328.3654968 -349.08453369 324.45355225 C-348.40842822 322.61894986 -347.73403542 320.78371528 -347.0614624 318.94781494 C-339.35083425 297.91843308 -329.26121346 284.84780499 -313.49023438 269.08398438 C-312.16192213 267.75267395 -310.83381303 266.42116082 -309.50588989 265.08946228 C-305.92823723 261.50304268 -302.34741097 257.91980864 -298.76569295 254.33744955 C-296.52730644 252.09834956 -294.28963454 249.85853795 -292.05221367 247.61847305 C-284.24582374 239.80286129 -276.4368852 231.98980663 -268.62548828 224.17919922 C-261.34134322 216.89565746 -254.06282277 209.60652781 -246.7868529 202.31482017 C-240.53292219 196.04784397 -234.27517285 189.78469847 -228.01439565 183.524562 C-224.27747481 179.78789658 -220.54213655 176.0496814 -216.81062508 172.30761337 C-213.31099985 168.79835497 -209.80667042 165.29386541 -206.29857254 161.79307747 C-205.00921894 160.50477496 -203.72158839 159.21474546 -202.43577003 157.92291451 C-200.68769405 156.167191 -198.93364626 154.41766679 -197.1778717 152.66964722 C-196.66455844 152.15119039 -196.15124519 151.63273357 -195.62237698 151.09856594 C-192.10107639 147.61181641 -192.10107639 147.61181641 -189.87280273 147.61181641 C-189.62208008 147.03657227 -189.37135742 146.46132813 -189.11303711 145.86865234 C-187.70551447 143.30740445 -186.09110248 141.57124248 -184.02905273 139.50244141 C-183.2775293 138.74833984 -182.52600586 137.99423828 -181.75170898 137.21728516 C-180.96666992 136.43998047 -180.18163086 135.66267578 -179.37280273 134.86181641 C-178.58776367 134.06904297 -177.80272461 133.27626953 -176.99389648 132.45947266 C-176.24237305 131.71052734 -175.49084961 130.96158203 -174.71655273 130.18994141 C-174.02754883 129.50319336 -173.33854492 128.81644531 -172.62866211 128.10888672 C-170.87280273 126.61181641 -170.87280273 126.61181641 -168.87280273 126.61181641 C-168.63941413 126.05394345 -168.40602552 125.4960705 -168.16556454 124.9212923 C-166.54156391 122.02006928 -164.53677429 120.01749889 -162.18861389 117.66020203 C-161.70872353 117.17578056 -161.22883318 116.69135909 -160.73440069 116.19225818 C-159.12650107 114.57170769 -157.51154642 112.95838079 -155.89648438 111.3449707 C-154.74123713 110.18373829 -153.58640105 109.0220967 -152.4319458 107.8600769 C-149.2937585 104.70421256 -146.14909952 101.55487427 -143.00270009 98.40719962 C-141.03458027 96.43765762 -139.0678918 94.46669806 -137.10171318 92.49521828 C-130.23417311 85.60916616 -123.36147534 78.72831053 -116.48388672 71.85229492 C-110.08783718 65.45744429 -103.7029968 59.05155392 -97.32338625 52.64030713 C-91.836554 47.12724469 -86.3419576 41.62200146 -80.84135717 36.12267619 C-77.56056704 32.84239408 -74.28290293 29.55913622 -71.01301765 26.26798058 C-67.93160812 23.16707728 -64.84056622 20.07609811 -61.74217224 16.99216843 C-60.61289462 15.86496685 -59.48695364 14.73440986 -58.36482048 13.60009575 C-42.59888321 -2.32569587 -21.22749504 -14.8120107 0 0 Z M-38.73220825 17.67814636 C-39.35868256 18.34074966 -39.98515686 19.00335297 -40.63061523 19.68603516 C-41.64150711 20.71178398 -41.64150711 20.71178398 -42.67282104 21.758255 C-44.79831668 23.92259076 -46.89801122 26.11006432 -48.99780273 28.29931641 C-50.44407508 29.7807412 -51.8919779 31.26057606 -53.34155273 32.73876953 C-56.87107896 36.34501786 -60.37769309 39.97221513 -63.87280273 43.61181641 C-58.37561015 50.30711507 -52.26327122 56.34878131 -46.13061523 62.45166016 C-44.99553868 63.5848684 -43.8606851 64.71830002 -42.7260437 65.85194397 C-39.75929529 68.81489976 -36.78955471 71.77483834 -33.81915283 74.73413086 C-30.78051413 77.76248497 -27.74475364 80.7937214 -24.70874023 83.82470703 C-18.76622014 89.7565473 -12.82053173 95.68519902 -6.87280273 101.61181641 C-6.10775421 100.84447678 -5.34270569 100.07713715 -4.55447388 99.2865448 C-2.70686104 97.44371536 -0.85544932 95.6152409 1.03393555 93.81616211 C3.85537483 91.1196 6.65508789 88.40162209 9.44799805 85.67553711 C10.64818437 84.51059307 11.85457224 83.35200346 13.06713867 82.19995117 C23.67659192 72.14775531 23.67659192 72.14775531 27.2331543 58.29418945 C26.80809606 49.03790971 20.5625963 42.5864683 14.28735352 36.37353516 C13.64277695 35.72608841 12.99820038 35.07864166 12.33409119 34.41157532 C10.98047806 33.05593508 9.6231267 31.70401798 8.26220703 30.35571289 C6.18822287 28.29785347 4.13081022 26.22439281 2.07446289 24.14892578 C0.75055433 22.82699887 -0.57428413 21.50600245 -1.90014648 20.18603516 C-2.81448708 19.26258553 -2.81448708 19.26258553 -3.74729919 18.32048035 C-8.70276978 13.44524749 -13.52791112 10.18883797 -20.68338013 9.55400085 C-28.01967858 9.74772871 -33.62873563 12.57032087 -38.73220825 17.67814636 Z M-76.87280273 55.61181641 C-77.46152801 56.30673022 -77.46152801 56.30673022 -78.06214672 57.0156827 C-82.99471574 62.75342385 -88.24078693 68.11758712 -93.59812927 73.45739746 C-94.5695871 74.42929218 -95.54082481 75.40140695 -96.51186329 76.37372065 C-99.16177932 79.02585854 -101.81477924 81.6748921 -104.46832168 84.32340097 C-107.33643864 87.18718026 -110.20164526 90.05386882 -113.06721497 92.92019653 C-118.02609651 97.87960121 -122.98679873 102.8371786 -127.94875908 107.79350281 C-135.12282806 114.95942829 -142.29411853 122.12812912 -149.46474422 129.29749995 C-161.10002792 140.93059761 -172.73754081 152.56146256 -184.37646484 164.19091797 C-195.67939745 175.48466487 -206.98127431 186.77946657 -218.28173828 198.07568359 C-218.97885618 198.77253877 -219.67597408 199.46939395 -220.39421677 200.18736595 C-223.89161222 203.68345632 -227.38898699 207.17956739 -230.88635147 210.67568874 C-259.87862851 239.65760712 -288.87452736 268.63589983 -317.87280273 297.61181641 C-317.46097748 298.09175049 -317.04915222 298.57168457 -316.62484741 299.06616211 C-315.81438461 300.01108521 -315.81438461 300.01108521 -314.98754883 300.97509766 C-314.45197357 301.59940674 -313.91639832 302.22371582 -313.36459351 302.86694336 C-312.24873507 304.17210716 -311.14076944 305.48402629 -310.03686523 306.79931641 C-309.52897461 307.39744141 -309.02108398 307.99556641 -308.49780273 308.61181641 C-307.99506836 309.20994141 -307.49233398 309.80806641 -306.97436523 310.42431641 C-305.12236653 312.3520474 -303.2321358 314.0532139 -301.20532227 315.79077148 C-297.11913299 319.35000784 -293.26565703 323.0897657 -289.45092773 326.93603516 C-288.78365662 327.60472122 -288.1163855 328.27340729 -287.42889404 328.96235657 C-285.32447332 331.07231037 -283.22357548 333.18573112 -281.12280273 335.29931641 C-279.69986 336.72728434 -278.27668479 338.15502066 -276.85327148 339.58251953 C-274.24929409 342.19461787 -271.6466253 344.80800383 -269.0456543 347.4230957 C-266.6584967 349.82314623 -264.26809447 352.21987838 -261.87280273 354.61181641 C-258.48031903 353.14244109 -256.26827396 351.25612497 -253.66367722 348.64878654 C-252.82666487 347.8157563 -251.98965253 346.98272606 -251.12727618 346.12445247 C-250.21288185 345.20423246 -249.29848752 344.28401245 -248.35638428 343.33590698 C-247.37165633 342.35205106 -246.38648904 341.36863471 -245.40092015 340.38562119 C-242.69186979 337.68104888 -239.98910519 334.97026974 -237.28730869 332.25845361 C-234.37344654 329.33596588 -231.45381858 326.41924852 -228.53488159 323.50183105 C-223.47772932 318.4457282 -218.42425591 313.38597226 -213.37325287 308.32372665 C-206.07031891 301.00454834 -198.7618778 293.69088967 -191.45207468 286.37857248 C-179.59295964 274.51507866 -167.73831911 262.64712408 -155.88647461 250.77636719 C-144.37254002 239.24407852 -132.85650966 227.71388935 -121.33764648 216.18652344 C-120.62779243 215.47614394 -119.91793838 214.76576444 -119.18657359 214.03385828 C-115.62548158 210.47015622 -112.06434823 206.90649545 -108.50319433 203.34285522 C-78.95332024 173.77224294 -49.41069987 144.19439207 -19.87280273 114.61181641 C-21.2617167 111.7253523 -22.58600278 109.65250098 -24.86621094 107.39135742 C-25.77274162 106.48505333 -25.77274162 106.48505333 -26.69758606 105.56044006 C-27.34966537 104.91868332 -28.00174469 104.27692657 -28.67358398 103.61572266 C-29.34697311 102.94516342 -30.02036224 102.27460419 -30.7141571 101.58372498 C-32.86655016 99.44250882 -35.02578011 97.30833948 -37.18530273 95.17431641 C-38.62781949 93.74183624 -40.06988196 92.30889843 -41.51147461 90.87548828 C-44.16857773 88.23469618 -46.82828508 85.59659004 -49.49121094 82.96166992 C-52.29431995 80.1875681 -55.08555947 77.40186751 -57.87280273 74.61181641 C-58.5650293 73.93119141 -59.25725586 73.25056641 -59.97045898 72.54931641 C-62.81952658 69.73989786 -65.56680861 66.99649473 -68.06030273 63.86181641 C-70.08396566 61.34968312 -72.31495084 59.56386127 -74.87280273 57.61181641 C-75.86280273 56.62181641 -75.86280273 56.62181641 -76.87280273 55.61181641 Z M-326.87280273 312.61181641 C-328.85308738 317.9302843 -330.82845012 323.2505445 -332.79931641 328.57250977 C-333.47017324 330.38192779 -334.14236153 332.19085275 -334.81591797 333.99926758 C-335.78502029 336.60189734 -336.74928717 339.20627504 -337.71264648 341.81103516 C-338.01371811 342.61643234 -338.31478973 343.42182953 -338.62498474 344.25163269 C-339.40300201 346.36291451 -340.14256104 348.48366344 -340.87280273 350.61181641 C-341.37070312 351.95083008 -341.37070312 351.95083008 -341.87866211 353.31689453 C-341.87091287 356.35201499 -340.56941252 357.59704227 -338.47938538 359.68501282 C-337.97112717 360.16230331 -337.46286896 360.63959381 -336.93920898 361.13134766 C-336.427285 361.63478195 -335.91536102 362.13821625 -335.38792419 362.65690613 C-333.75059226 364.26066695 -332.09364798 365.84232179 -330.43530273 367.42431641 C-329.32131505 368.50820944 -328.20866684 369.59348098 -327.09741211 370.68017578 C-324.37115741 373.34029765 -321.62712512 375.98077943 -318.87280273 378.61181641 C-314.83701459 377.28331307 -310.80268551 375.95048562 -306.76953125 374.61401367 C-305.40369264 374.1620406 -304.03749384 373.71115423 -302.67089844 373.26147461 C-293.63338269 370.28663952 -284.72053717 367.1193752 -275.87280273 363.61181641 C-276.30423584 363.08450928 -276.73566895 362.55720215 -277.18017578 362.01391602 C-278.20922852 360.7561849 -279.23828125 359.49845378 -280.26733398 358.24072266 C-281.88114684 356.3569889 -281.88114684 356.3569889 -284.87280273 355.61181641 C-285.57431426 354.2964823 -286.23806199 352.96064049 -286.87280273 351.61181641 C-288.28947744 349.86065911 -288.28947744 349.86065911 -289.87280273 348.61181641 C-290.53280273 348.61181641 -291.19280273 348.61181641 -291.87280273 348.61181641 C-291.87280273 347.95181641 -291.87280273 347.29181641 -291.87280273 346.61181641 C-292.53280273 346.61181641 -293.19280273 346.61181641 -293.87280273 346.61181641 C-293.87280273 345.95181641 -293.87280273 345.29181641 -293.87280273 344.61181641 C-295.26192034 343.20370321 -295.26192034 343.20370321 -297.06030273 341.79931641 C-300.19771191 339.24974425 -303.03745527 336.48644066 -305.87280273 333.61181641 C-307.39667555 332.08621054 -308.92151497 330.56156992 -310.44702148 329.03759766 C-315.9222819 323.56233724 -321.39754232 318.08707682 -326.87280273 312.61181641 Z " fill="#FDFDFE" transform="translate(493.872802734375,116.38818359375)"/>
<path d="M0 0 C3.0625 0.5 3.0625 0.5 5.07910156 2.5769043 C7.28556197 5.82874458 8.6143582 9.07760215 9.859375 12.76953125 C10.0978717 13.45053391 10.33636841 14.13153656 10.58209229 14.83317566 C11.33498095 16.98981252 12.0739094 19.15093007 12.8125 21.3125 C13.32330083 22.78352219 13.83501059 24.25422909 14.34765625 25.72460938 C15.59647918 29.31284538 16.83281277 32.90516356 18.0625 36.5 C18.86357178 36.58564209 19.66464355 36.67128418 20.48999023 36.75952148 C24.16001388 37.15199062 27.83000714 37.54474317 31.5 37.9375 C32.76005859 38.07220703 34.02011719 38.20691406 35.31835938 38.34570312 C37.78082471 38.60930908 40.24307192 38.87496206 42.70507812 39.14282227 C44.76494248 39.36195996 46.8259931 39.57063762 48.88867188 39.76147461 C54.78868462 40.32397582 54.78868462 40.32397582 57.6875 42.1875 C59.0625 44.5 59.0625 44.5 59.046875 47.25 C57.68573032 51.74393801 55.16840478 53.79334789 51.6875 56.8125 C50.74825684 57.65627197 50.74825684 57.65627197 49.79003906 58.51708984 C45.0502182 62.74056151 40.16787508 66.77833019 35.171875 70.6953125 C32.86252998 72.50569243 32.86252998 72.50569243 31.0625 75.5 C31.43998614 78.50130119 31.43998614 78.50130119 32.3984375 81.85546875 C32.88183594 83.74942383 32.88183594 83.74942383 33.375 85.68164062 C33.72797907 87.01724151 34.08215551 88.3525265 34.4375 89.6875 C38.77871735 106.10853863 38.77871735 106.10853863 38.0625 112.5 C35.9375 114.625 35.9375 114.625 33.0625 115.5 C27.94283142 114.27859335 24.17537359 111.77928796 19.9375 108.8125 C13.47310854 104.38690913 6.89430038 100.34209258 0.0625 96.5 C-0.85789063 97.11746094 -1.77828125 97.73492187 -2.7265625 98.37109375 C-5.37589566 100.14660187 -8.03201397 101.91147597 -10.69140625 103.671875 C-13.42932274 105.48589324 -16.1425806 107.32928036 -18.83984375 109.203125 C-20.05965962 110.0315979 -21.27970206 110.85973732 -22.5 111.6875 C-23.0583252 112.08573975 -23.61665039 112.48397949 -24.19189453 112.89428711 C-27.09005599 114.83205692 -28.69182615 115.51024861 -32.21484375 115.36328125 C-34.9375 114.5 -34.9375 114.5 -36.9375 112.5 C-37.27528157 107.63823923 -36.6342102 103.51530975 -35.37109375 98.83203125 C-35.05076172 97.60935547 -34.73042969 96.38667969 -34.40039062 95.12695312 C-33.7135957 92.57207599 -33.0260891 90.01739005 -32.33789062 87.46289062 C-31.85932617 85.63467773 -31.85932617 85.63467773 -31.37109375 83.76953125 C-31.07259521 82.66198486 -30.77409668 81.55443848 -30.46655273 80.41333008 C-29.9504267 77.57118333 -29.83848749 76.13427427 -30.9375 73.5 C-32.68616829 71.64313651 -34.4019619 69.98447949 -36.3125 68.3125 C-36.84544678 67.83490234 -37.37839355 67.35730469 -37.92749023 66.86523438 C-42.39256303 62.89628078 -46.99266062 59.1035134 -51.66015625 55.375 C-56.62754949 51.28520797 -56.62754949 51.28520797 -57.875 48.125 C-57.9375 45.5 -57.9375 45.5 -56.3605957 42.9074707 C-53.27327808 39.84006123 -51.52576054 39.71420855 -47.23046875 39.35546875 C-45.2669043 39.17661133 -45.2669043 39.17661133 -43.26367188 38.99414062 C-41.88413379 38.89166812 -40.5045763 38.7894567 -39.125 38.6875 C-37.75698203 38.5677883 -36.38913871 38.44606263 -35.02148438 38.32226562 C-28.97242303 37.80258682 -23.01145769 37.44031343 -16.9375 37.5 C-16.76734375 36.84515625 -16.5971875 36.1903125 -16.421875 35.515625 C-14.53430238 28.40710684 -12.34139851 21.44961636 -9.9375 14.5 C-9.59460938 13.47777344 -9.25171875 12.45554688 -8.8984375 11.40234375 C-8.56070313 10.42394531 -8.22296875 9.44554687 -7.875 8.4375 C-7.57464844 7.55964844 -7.27429688 6.68179688 -6.96484375 5.77734375 C-5.30253381 2.09245138 -4.01982618 0.68422573 0 0 Z M-0.9375 30.5 C-1.34742188 31.69238281 -1.75734375 32.88476562 -2.1796875 34.11328125 C-2.72373569 35.67976484 -3.2680188 37.24616686 -3.8125 38.8125 C-4.08191406 39.59818359 -4.35132813 40.38386719 -4.62890625 41.19335938 C-4.89316406 41.95068359 -5.15742188 42.70800781 -5.4296875 43.48828125 C-5.67058105 44.18477783 -5.91147461 44.88127441 -6.15966797 45.59887695 C-6.9375 47.5 -6.9375 47.5 -8.9375 50.5 C-11.64748558 51.45577296 -14.41638107 51.72988011 -17.265625 52.03515625 C-18.06484375 52.12216797 -18.8640625 52.20917969 -19.6875 52.29882812 C-20.5125 52.38583984 -21.3375 52.47285156 -22.1875 52.5625 C-23.02796875 52.65337891 -23.8684375 52.74425781 -24.734375 52.83789062 C-26.80181641 53.06108032 -28.86962402 53.28087322 -30.9375 53.5 C-26.76983654 57.88821499 -22.31570101 61.05189319 -17.265625 64.33984375 C-14.9375 66.5 -14.9375 66.5 -13.984375 69.30859375 C-13.92837404 73.12132579 -14.74964679 76.00673659 -15.9375 79.625 C-17.88549956 85.04409174 -17.88549956 85.04409174 -16.9375 90.5 C-15.49117187 89.54287109 -15.49117187 89.54287109 -14.015625 88.56640625 C-12.73977632 87.73147586 -11.46372392 86.89685671 -10.1875 86.0625 C-9.55328125 85.64162109 -8.9190625 85.22074219 -8.265625 84.78710938 C-7.646875 84.38427734 -7.028125 83.98144531 -6.390625 83.56640625 C-5.82504883 83.19459229 -5.25947266 82.82277832 -4.67675781 82.43969727 C-2.70870703 81.37638628 -1.16192563 80.78433518 1.0625 80.5 C2.93774414 81.1809082 2.93774414 81.1809082 4.84765625 82.30078125 C5.89083008 82.90116211 5.89083008 82.90116211 6.95507812 83.51367188 C8.02918945 84.1565918 8.02918945 84.1565918 9.125 84.8125 C9.84494141 85.22951172 10.56488281 85.64652344 11.30664062 86.07617188 C14.28632294 87.81086158 17.19243246 89.58662164 20.0625 91.5 C19.39082047 85.72355605 18.04316715 80.21431991 16.5859375 74.5859375 C15.74179315 69.60926558 15.74179315 69.60926558 17.0625 66.5 C19.39566497 64.16302267 21.97889851 62.21829427 24.625 60.25 C26.02392407 59.18463625 27.42116166 58.11705302 28.81640625 57.046875 C29.74948608 56.34836426 29.74948608 56.34836426 30.70141602 55.63574219 C31.15057373 55.26094727 31.59973145 54.88615234 32.0625 54.5 C32.0625 54.17 32.0625 53.84 32.0625 53.5 C30.09216797 53.31824219 30.09216797 53.31824219 28.08203125 53.1328125 C26.34631613 52.96393211 24.61064108 52.79463961 22.875 52.625 C22.01068359 52.54636719 21.14636719 52.46773437 20.25585938 52.38671875 C10.75514359 51.44028729 10.75514359 51.44028729 8.0625 49.5 C6.42301971 46.41058369 5.33881289 43.19191345 4.25 39.875 C3.78303711 38.52921875 3.78303711 38.52921875 3.30664062 37.15625 C2.54134003 34.9427652 1.79425215 32.72475492 1.0625 30.5 C0.4025 30.5 -0.2575 30.5 -0.9375 30.5 Z " fill="#FDFDFE" transform="translate(183.9375,170.5)"/>
<path d="M0 0 C2.31 0.33 4.62 0.66 7 1 C11.31665999 12.23556182 15.26549765 23.55812045 19 35 C19.97348389 35.13575439 20.94696777 35.27150879 21.94995117 35.41137695 C25.57645007 35.92012316 29.20069853 36.44359266 32.82446289 36.97143555 C34.39029751 37.1974373 35.95670716 37.41949287 37.52368164 37.63745117 C39.78175616 37.95224784 42.0373517 38.28138727 44.29296875 38.61328125 C45.33701118 38.75410881 45.33701118 38.75410881 46.40214539 38.89778137 C50.54733923 39.52477778 53.62816758 40.4787128 57 43 C58.125 45.375 58.125 45.375 58 48 C53.88608874 52.84583413 48.69154122 56.11963815 43.4375 59.625 C41.74820843 60.7622941 40.05938942 61.90029052 38.37109375 63.0390625 C37.62786865 63.53615723 36.88464355 64.03325195 36.11889648 64.54541016 C35.41966064 65.0254248 34.7204248 65.50543945 34 66 C33.24871826 66.4643042 32.49743652 66.9286084 31.72338867 67.40698242 C29.79777311 68.84824611 29.79777311 68.84824611 29.71826172 71.06518555 C30.81963132 78.86988376 32.83085111 86.30598597 35.00390625 93.87304688 C35.27332031 94.84951172 35.54273438 95.82597656 35.8203125 96.83203125 C36.07055176 97.70577393 36.32079102 98.5795166 36.57861328 99.47973633 C37.05490211 102.32836299 36.83625728 104.24490918 36 107 C34 109 34 109 31.73632812 109.35961914 C28.09134241 108.8805806 26.18620961 107.40136836 23.21875 105.24609375 C22.11857368 104.46667816 21.01831063 103.68738497 19.91796875 102.90820312 C18.20326915 101.67248776 16.49228761 100.43188411 14.78369141 99.18774414 C13.124909 97.98613835 11.45399056 96.80315432 9.78125 95.62109375 C8.79189453 94.9036499 7.80253906 94.18620605 6.78320312 93.44702148 C4.13025874 91.76788282 4.13025874 91.76788282 1.35449219 92.14404297 C-0.83761178 92.94096505 -2.5393899 93.75548438 -4.453125 95.07421875 C-5.06816895 95.4921167 -5.68321289 95.91001465 -6.31689453 96.34057617 C-7.27378174 97.00730347 -7.27378174 97.00730347 -8.25 97.6875 C-8.91241699 98.13649658 -9.57483398 98.58549316 -10.25732422 99.0480957 C-13.13709592 101.00320554 -15.98546088 102.98947027 -18.8046875 105.03125 C-19.57039063 105.5778125 -20.33609375 106.124375 -21.125 106.6875 C-21.76695312 107.16574219 -22.40890625 107.64398438 -23.0703125 108.13671875 C-25.73185497 109.3274088 -27.26893533 108.88199957 -30 108 C-32 106 -32 106 -32.10180664 104.09619141 C-31.30157603 96.63505951 -29.46779645 89.5875779 -27.4375 82.375 C-27.10814453 81.18003906 -26.77878906 79.98507813 -26.43945312 78.75390625 C-25.63351803 75.83385155 -24.82024222 72.91606174 -24 70 C-30.37763031 64.76734421 -36.81896137 59.98020032 -43.8046875 55.60351562 C-47.61967486 53.14364356 -50.33664986 50.76750284 -53 47 C-52.5625 44.6875 -52.5625 44.6875 -51 42 C-43.38734338 38.83881208 -35.56798019 37.88131504 -27.4375 36.8125 C-26.14263672 36.63525391 -24.84777344 36.45800781 -23.51367188 36.27539062 C-20.34340806 35.84255018 -17.17229658 35.41763414 -14 35 C-13.52373169 33.62279785 -13.52373169 33.62279785 -13.0378418 32.21777344 C-11.85412671 28.80101452 -10.66101557 25.38759911 -9.46508789 21.97509766 C-8.94951003 20.49975178 -8.43645957 19.02352007 -7.92602539 17.54638672 C-7.19044503 15.41914847 -6.445732 13.29529744 -5.69921875 11.171875 C-5.47409103 10.51443298 -5.24896332 9.85699097 -5.01701355 9.17962646 C-3.7723899 5.67014728 -2.43149578 2.83414399 0 0 Z M2 30 C1.6596875 31.20398438 1.319375 32.40796875 0.96875 33.6484375 C0.48092044 35.22450224 -0.00876043 36.79999479 -0.5 38.375 C-0.71914062 39.1690625 -0.93828125 39.963125 -1.1640625 40.78125 C-2.9920635 46.45767417 -2.9920635 46.45767417 -5.7578125 47.94580078 C-7.84849792 48.48612995 -9.85280353 48.78178492 -12 49 C-13.19625 49.20882812 -14.3925 49.41765625 -15.625 49.6328125 C-16.73875 49.79523438 -17.8525 49.95765625 -19 50.125 C-20.134375 50.29257813 -21.26875 50.46015625 -22.4375 50.6328125 C-23.283125 50.75398438 -24.12875 50.87515625 -25 51 C-22.31714128 53.81761418 -19.61762998 56.10270657 -16.375 58.25 C-15.59898437 58.77078125 -14.82296875 59.2915625 -14.0234375 59.828125 C-12.10126464 61.16705599 -12.10126464 61.16705599 -10 61 C-9.76863363 66.5021816 -10.5649654 71.13853778 -12 76.4375 C-12.19078125 77.16904297 -12.3815625 77.90058594 -12.578125 78.65429688 C-13.04450403 80.43819666 -13.52118278 82.21939845 -14 84 C-9.49288394 82.37617084 -6.15929082 80.03223109 -2.37890625 77.14453125 C0.8792036 75.57700057 2.56380201 75.98546144 6 77 C8.703125 78.62890625 8.703125 78.62890625 11.25 80.5625 C14.31127791 83.16988645 14.31127791 83.16988645 18 84 C17.80083984 82.98292969 17.80083984 82.98292969 17.59765625 81.9453125 C17.22703567 79.99211502 16.88655879 78.0330474 16.5703125 76.0703125 C16.08634881 73.04691483 16.08634881 73.04691483 15.1171875 70.4296875 C14.27387287 67.41508004 14.01281266 66.00726514 15 63 C19.28907512 58.49763981 24.74865354 55.25348438 30 52 C25.6288782 49.61056551 21.28703514 49.37601191 16.40039062 49.05273438 C13.06555283 48.7182571 11.3943995 48.47156462 9.203125 45.8515625 C7.85054808 42.64577954 6.53080332 39.44728457 5.3125 36.1875 C4.87550781 35.02605469 4.43851563 33.86460938 3.98828125 32.66796875 C3.66214844 31.78753906 3.33601563 30.90710938 3 30 C2.67 30 2.34 30 2 30 Z " fill="#FDFDFE" transform="translate(171,21)"/>
<path d="M0 0 C0.94875 0.04125 1.8975 0.0825 2.875 0.125 C6.40975151 6.70091159 8.81597837 13.4104484 11.125 20.5 C11.48851563 21.59183594 11.85203125 22.68367188 12.2265625 23.80859375 C14.875 31.84351504 14.875 31.84351504 14.875 34.125 C15.78789795 34.20016846 16.7007959 34.27533691 17.64135742 34.3527832 C21.04358436 34.63902462 24.44442061 34.93665424 27.8449707 35.24194336 C29.31397786 35.37149029 30.7833882 35.49654969 32.25317383 35.61694336 C34.37183883 35.7912866 36.48850559 35.98198105 38.60546875 36.17578125 C39.87801514 36.28575439 41.15056152 36.39572754 42.46166992 36.5090332 C45.96561445 37.14135221 48.04342563 37.99846053 50.875 40.125 C52 42.5 52 42.5 51.875 45.125 C47.82168217 49.83207877 42.80610963 53.19530334 37.75 56.75 C36.14142286 57.88546621 34.53458039 59.02339483 32.9296875 60.1640625 C32.22312012 60.66115723 31.51655273 61.15825195 30.78857422 61.67041016 C30.15709473 62.1504248 29.52561523 62.63043945 28.875 63.125 C28.27083252 63.55304932 27.66666504 63.98109863 27.04418945 64.42211914 C25.5711392 66.17178036 25.5711392 66.17178036 26.17700195 68.94067383 C26.48597412 70.05982178 26.79494629 71.17896973 27.11328125 72.33203125 C27.43876953 73.55857422 27.76425781 74.78511719 28.09960938 76.04882812 C28.4611463 77.34535744 28.82378684 78.64157949 29.1875 79.9375 C29.87746681 82.46311134 30.56128795 84.99041146 31.23828125 87.51953125 C31.55063721 88.64206299 31.86299316 89.76459473 32.18481445 90.92114258 C32.87556582 94.12762655 33.12566922 96.85746337 32.875 100.125 C31.1875 102.0625 31.1875 102.0625 28.875 103.125 C24.87145271 102.71596628 22.43553736 101.39671255 19.22265625 99.03515625 C18.36349609 98.41576172 17.50433594 97.79636719 16.61914062 97.15820312 C15.73419922 96.50787109 14.84925781 95.85753906 13.9375 95.1875 C6.54437361 89.19606257 6.54437361 89.19606257 -2.125 86.125 C-4.84225303 87.48820101 -6.91562621 88.76717383 -9.3125 90.5625 C-10.63633891 91.49533095 -11.96056083 92.42761859 -13.28515625 93.359375 C-13.93371582 93.82666016 -14.58227539 94.29394531 -15.25048828 94.77539062 C-17.88444767 96.6717865 -20.55064446 98.51048789 -23.25 100.3125 C-24.07757813 100.88355469 -24.90515625 101.45460938 -25.7578125 102.04296875 C-28.71754392 103.39584928 -30.09944012 103.25067127 -33.125 102.125 C-35.40708324 98.70187514 -35.3204791 98.37626887 -34.5625 94.5625 C-33.32190118 88.45744789 -31.6253585 82.47594506 -29.89038086 76.49584961 C-28.70520732 72.38614024 -27.7258354 68.37135359 -27.125 64.125 C-27.64449219 63.89425781 -28.16398437 63.66351563 -28.69921875 63.42578125 C-31.97959499 61.66673892 -34.93188184 59.49518955 -37.9375 57.3125 C-38.52853516 56.88646484 -39.11957031 56.46042969 -39.72851562 56.02148438 C-40.92213973 55.16108576 -42.11404018 54.29829085 -43.30419922 53.43310547 C-44.55670116 52.53327905 -45.81944881 51.64759879 -47.09033203 50.77392578 C-51.99517855 47.38464291 -51.99517855 47.38464291 -53.375 44.625 C-53.125 42.125 -53.125 42.125 -51.07739258 39.5402832 C-47.43698837 36.5621538 -45.2916506 36.33283411 -40.63671875 35.98046875 C-39.93352005 35.92095535 -39.23032135 35.86144196 -38.5058136 35.80012512 C-36.2757967 35.61627571 -34.04492673 35.46396116 -31.8125 35.3125 C-30.2934545 35.19283529 -28.77456969 35.07111176 -27.25585938 34.94726562 C-23.54713373 34.64933046 -19.8369807 34.37961011 -16.125 34.125 C-15.80225098 33.16609863 -15.47950195 32.20719727 -15.14697266 31.21923828 C-13.94898623 27.66512346 -12.74325552 24.11367702 -11.53515625 20.56298828 C-11.01317814 19.02529529 -10.49330848 17.48688491 -9.97558594 15.94775391 C-9.23143644 13.73668902 -8.47976453 11.52830746 -7.7265625 9.3203125 C-7.4962735 8.63067413 -7.2659845 7.94103577 -7.02871704 7.23049927 C-4.60767907 0.18430716 -4.60767907 0.18430716 0 0 Z M-1.125 30.125 C-1.52332031 31.26839844 -1.92164062 32.41179687 -2.33203125 33.58984375 C-2.86657799 35.08094781 -3.40176763 36.57182151 -3.9375 38.0625 C-4.19853516 38.81724609 -4.45957031 39.57199219 -4.72851562 40.34960938 C-5.44010087 42.30866505 -6.27561557 44.22163488 -7.125 46.125 C-10.64899356 47.29966452 -14.14550617 47.72527389 -17.8125 48.1875 C-18.51439453 48.27837891 -19.21628906 48.36925781 -19.93945312 48.46289062 C-21.66762623 48.68625994 -23.39626967 48.90598496 -25.125 49.125 C-22.45576708 51.88956267 -20.19264218 54.08467485 -16.875 56.0625 C-14.125 58.125 -14.125 58.125 -13.0625 60.6875 C-13.14024147 64.96328091 -14.22962128 68.58034995 -15.53125 72.63671875 C-16.38215443 75.23317586 -16.38215443 75.23317586 -15.125 78.125 C-14.25617187 77.52429688 -13.38734375 76.92359375 -12.4921875 76.3046875 C-11.32883952 75.53537674 -10.16473652 74.76720688 -9 74 C-8.43023437 73.60167969 -7.86046875 73.20335937 -7.2734375 72.79296875 C-4.20283294 70.80405443 -2.65236625 70.03007407 1 70.6875 C3.74116224 72.05808112 6.2367821 73.49836328 8.75 75.25 C9.53117187 75.78882813 10.31234375 76.32765625 11.1171875 76.8828125 C11.69726562 77.29273438 12.27734375 77.70265625 12.875 78.125 C13.535 77.795 14.195 77.465 14.875 77.125 C14.6584375 76.32835937 14.441875 75.53171875 14.21875 74.7109375 C13.9403125 73.65132812 13.661875 72.59171875 13.375 71.5 C13.0965625 70.45585937 12.818125 69.41171875 12.53125 68.3359375 C11.86005771 65.05188952 11.4347142 62.45466134 11.875 59.125 C13.84375 57.078125 13.84375 57.078125 16.375 55.375 C17.9013726 54.32915211 19.40884029 53.25371025 20.875 52.125 C20.875 51.465 20.875 50.805 20.875 50.125 C21.535 49.795 22.195 49.465 22.875 49.125 C21.89917969 49.00382812 20.92335937 48.88265625 19.91796875 48.7578125 C18.64566406 48.59023437 17.37335938 48.42265625 16.0625 48.25 C14.16564453 48.00636719 14.16564453 48.00636719 12.23046875 47.7578125 C8.875 47.125 8.875 47.125 5.875 45.125 C4.70242191 42.58584063 3.66328306 40.11172552 2.6875 37.5 C2.41486328 36.79359375 2.14222656 36.0871875 1.86132812 35.359375 C1.19061444 33.61787279 0.53166222 31.87184902 -0.125 30.125 C-0.455 30.125 -0.785 30.125 -1.125 30.125 Z " fill="#FDFDFE" transform="translate(70.125,110.875)"/>
<path d="" fill="#FFFFFF" transform="translate(0,0)"/>
<path d="" fill="#FFFFFF" transform="translate(0,0)"/>
<path d="" fill="#FFFFFF" transform="translate(0,0)"/>
<path d="" fill="#FFFFFF" transform="translate(0,0)"/>
<path d="" fill="#FFFFFF" transform="translate(0,0)"/>
<path d="" fill="#FFFFFF" transform="translate(0,0)"/>
<path d="" fill="#FFFFFF" transform="translate(0,0)"/>
<path d="" fill="#FFFFFF" transform="translate(0,0)"/>
<path d="" fill="#FFFFFF" transform="translate(0,0)"/>
<path d="" fill="#FFFFFF" transform="translate(0,0)"/>
<path d="" fill="#FFFFFF" transform="translate(0,0)"/>
<path d="" fill="#FFFFFF" transform="translate(0,0)"/>
<path d="" fill="#FFFFFF" transform="translate(0,0)"/>
<path d="" fill="#FFFFFF" transform="translate(0,0)"/>
<path d="" fill="#FFFFFF" transform="translate(0,0)"/>
<path d="" fill="#FFFFFF" transform="translate(0,0)"/>
<path d="" fill="#FFFFFF" transform="translate(0,0)"/>
<path d="" fill="#FFFFFF" transform="translate(0,0)"/>
<path d="" fill="#FFFFFF" transform="translate(0,0)"/>
<path d="" fill="#FFFFFF" transform="translate(0,0)"/>
<path d="" fill="#FFFFFF" transform="translate(0,0)"/>
<path d="" fill="#FFFFFF" transform="translate(0,0)"/>
<path d="" fill="#FFFFFF" transform="translate(0,0)"/>
<path d="" fill="#FFFFFF" transform="translate(0,0)"/>
<path d="" fill="#FFFFFF" transform="translate(0,0)"/>
<path d="" fill="#FFFFFF" transform="translate(0,0)"/>
<path d="" fill="#FFFFFF" transform="translate(0,0)"/>
<path d="" fill="#FFFFFF" transform="translate(0,0)"/>
<path d="" fill="#FFFFFF" transform="translate(0,0)"/>
</svg>
